<?xml version="1.0" standalone="no"?>
<!DOCTYPE svg PUBLIC "-//W3C//DTD SVG 20010904//EN"
 "http://www.w3.org/TR/2001/REC-SVG-20010904/DTD/svg10.dtd">
<svg version="1.0" xmlns="http://www.w3.org/2000/svg"
 width="1128.000000pt" height="1128.000000pt" viewBox="0 0 1128.000000 1128.000000"
 preserveAspectRatio="xMidYMid meet">
<metadata>
Created by potrace 1.11, written by Peter Selinger 2001-2013
</metadata>
<g transform="translate(0.000000,1128.000000) scale(0.100000,-0.100000)"
fill="#000000" stroke="none">
<path d="M4807 9854 c-3 -3 -22 -7 -43 -10 -170 -21 -362 -95 -531 -207 -97
-63 -272 -238 -336 -334 -26 -40 -47 -74 -45 -77 2 -2 -4 -12 -13 -22 -26 -32
-86 -167 -109 -249 -6 -22 -14 -47 -17 -55 -7 -19 -9 -25 -18 -75 -14 -78 -16
-111 -20 -247 -9 -414 172 -796 495 -1041 30 -23 57 -44 60 -48 3 -3 12 -9 20
-12 8 -4 31 -17 50 -28 152 -92 328 -151 515 -174 49 -6 226 -6 275 -1 34 4
120 18 145 23 11 3 26 5 33 5 6 1 12 4 12 7 0 3 17 7 37 9 20 1 41 6 47 11 6
5 13 9 16 9 3 1 18 5 33 11 16 6 30 11 32 11 27 0 265 133 273 152 2 5 8 8 13
8 5 0 24 12 42 27 38 32 194 189 220 222 25 31 88 129 87 136 0 3 6 12 13 20
35 35 139 315 152 410 22 159 22 337 1 445 -1 8 -6 33 -10 55 -25 127 -126
364 -193 453 -18 23 -33 44 -33 47 0 5 -29 40 -75 91 -16 18 -37 41 -46 51
-41 47 -183 157 -264 204 -78 45 -239 119 -265 121 -6 1 -9 1 -65 16 -22 6
-53 13 -70 16 -16 3 -41 9 -55 12 -30 8 -356 14 -363 8z"/>
<path d="M7908 7695 c-2 -2 -34 -6 -73 -8 -38 -3 -81 -8 -95 -11 -14 -3 -36
-8 -50 -11 -14 -4 -36 -8 -49 -11 -13 -3 -32 -9 -43 -15 -10 -5 -18 -8 -18 -5
0 5 -95 -32 -165 -64 -216 -102 -417 -285 -569 -518 -34 -53 -69 -108 -76
-122 -7 -14 -16 -27 -20 -30 -3 -3 -30 -45 -60 -95 -30 -49 -58 -93 -64 -97
-6 -4 -7 -8 -2 -8 5 0 2 -8 -6 -17 -8 -10 -39 -58 -69 -108 -30 -49 -57 -91
-61 -93 -5 -2 -8 -8 -8 -13 0 -5 -34 -67 -76 -137 -42 -70 -88 -147 -102 -172
-13 -25 -31 -52 -38 -61 -8 -8 -14 -19 -14 -23 0 -4 -38 -72 -85 -152 -47 -80
-85 -147 -85 -150 0 -3 -12 -21 -26 -40 -15 -19 -23 -34 -19 -34 5 0 2 -8 -6
-17 -14 -18 -19 -27 -67 -112 -14 -25 -67 -119 -119 -209 -51 -90 -93 -167
-93 -172 0 -6 -4 -10 -9 -10 -5 0 -11 -8 -15 -17 -3 -10 -20 -43 -37 -73 -17
-30 -45 -80 -62 -110 -16 -30 -37 -66 -46 -80 -10 -14 -28 -47 -42 -75 -13
-27 -27 -52 -30 -55 -4 -3 -16 -22 -28 -42 -158 -280 -214 -378 -450 -780 -79
-136 -175 -294 -180 -298 -4 -3 -12 -16 -18 -30 -7 -14 -24 -43 -38 -65 -14
-22 -32 -55 -42 -72 -9 -18 -20 -33 -25 -33 -4 0 -8 -4 -8 -10 0 -5 -13 -31
-28 -57 -15 -26 -36 -68 -46 -93 -10 -25 -22 -54 -27 -65 -4 -11 -16 -45 -25
-75 -9 -30 -20 -68 -25 -84 -5 -15 -6 -32 -3 -37 3 -5 2 -9 -3 -9 -4 0 -8 -10
-9 -22 0 -13 -4 -54 -9 -93 -12 -107 -9 -218 10 -335 2 -14 6 -42 9 -63 3 -21
12 -53 20 -72 8 -19 13 -35 11 -35 -9 0 64 -191 103 -270 22 -46 134 -218 162
-250 70 -80 134 -142 205 -195 40 -31 165 -109 175 -110 3 0 25 -10 50 -22 82
-38 144 -61 230 -82 161 -39 222 -46 400 -46 160 1 250 12 343 41 26 9 53 17
60 18 17 4 45 15 107 44 30 14 61 26 69 28 8 1 17 6 20 11 3 4 22 17 41 27 53
30 160 108 160 118 0 4 4 8 10 8 15 0 137 129 198 210 87 115 93 124 92 133 0
4 4 13 10 20 14 16 65 94 115 177 21 36 43 67 47 68 4 2 8 8 8 13 0 8 31 61
138 237 12 20 25 44 29 52 3 8 12 22 18 30 7 8 24 35 37 60 35 61 196 341 207
360 27 42 146 257 149 268 2 6 8 12 14 12 6 0 8 3 5 6 -4 4 2 19 12 33 15 22
125 215 196 346 12 22 45 80 74 129 28 49 51 95 51 102 0 8 4 14 10 14 5 0 12
11 16 25 3 14 10 25 15 25 5 0 9 6 9 14 0 8 6 21 13 28 6 7 29 47 51 88 21 41
44 82 50 90 6 8 20 33 31 55 11 22 22 42 25 45 3 3 13 21 24 40 48 89 80 146
86 155 4 6 18 28 30 50 70 126 260 450 298 510 91 140 220 288 306 350 39 28
166 96 166 89 0 -4 7 -1 15 6 8 7 15 9 15 5 0 -4 7 -2 15 5 8 7 15 9 15 6 0
-4 8 -2 18 3 27 14 222 33 222 21 0 -3 17 -5 38 -3 41 2 184 -22 219 -37 26
-11 35 -3 23 19 -28 52 -110 228 -110 237 0 5 -6 16 -12 23 -7 6 -13 15 -13
19 0 4 -13 34 -29 67 -43 89 -124 261 -158 334 -77 168 -244 492 -295 573 -13
21 -23 40 -23 43 0 3 -8 18 -19 33 -10 15 -49 74 -87 132 -38 58 -80 118 -94
134 -49 58 -125 140 -143 155 -10 9 -35 31 -55 49 -57 51 -199 143 -284 185
-132 65 -278 108 -408 122 -58 7 -199 13 -202 10z"/>
<path d="M2966 6963 c-2 -2 -25 -6 -52 -9 -27 -2 -60 -7 -74 -10 -14 -3 -34
-7 -45 -9 -53 -10 -141 -38 -154 -48 -8 -7 -17 -11 -20 -11 -14 3 -151 -56
-151 -65 0 -4 -16 -13 -35 -21 -19 -8 -35 -17 -35 -22 0 -4 -5 -8 -10 -8 -33
0 -265 -210 -330 -298 -14 -19 -30 -39 -35 -45 -18 -20 -74 -106 -91 -140 -9
-18 -20 -34 -23 -37 -4 -3 -34 -50 -68 -105 -34 -55 -86 -138 -116 -185 -30
-47 -85 -134 -122 -195 -37 -60 -94 -152 -126 -203 -33 -50 -59 -96 -59 -101
0 -4 -9 -16 -20 -26 -11 -10 -20 -22 -20 -27 0 -5 -13 -29 -30 -53 -16 -24
-30 -48 -30 -54 0 -6 -3 -11 -7 -11 -5 0 -13 -10 -19 -23 -10 -20 -265 -435
-318 -517 -32 -48 -213 -344 -235 -383 -48 -85 -57 -97 -63 -97 -5 0 -8 -5 -8
-11 0 -6 -13 -30 -29 -54 -16 -24 -32 -53 -36 -64 -3 -12 -10 -21 -15 -21 -4
0 -10 -8 -14 -17 -3 -10 -14 -31 -25 -48 -10 -16 -74 -120 -141 -230 -67 -110
-131 -213 -141 -230 -10 -16 -26 -45 -36 -62 -9 -18 -20 -33 -25 -33 -4 0 -8
-9 -8 -19 0 -11 -4 -21 -9 -23 -12 -4 -85 -161 -110 -235 -29 -86 -59 -206
-68 -271 -9 -67 -10 -329 0 -387 22 -138 54 -245 110 -365 34 -73 146 -250
159 -250 4 0 8 -5 8 -10 0 -13 150 -164 205 -206 128 -98 255 -166 400 -217
55 -19 103 -35 108 -35 4 0 31 -5 60 -11 102 -20 133 -23 247 -22 120 0 213 6
227 14 4 3 26 8 48 11 43 7 253 74 270 86 6 4 42 24 80 44 96 51 119 65 156
98 10 10 23 18 29 18 21 0 286 277 299 313 2 6 12 20 23 31 10 11 24 32 30 48
7 15 16 28 19 28 4 0 12 13 19 30 7 17 16 30 21 30 5 0 9 5 9 11 0 6 13 29 28
52 15 23 34 54 41 70 8 15 18 27 23 27 4 0 8 4 8 9 0 5 61 107 135 226 74 119
135 220 135 225 0 5 4 10 8 12 7 3 74 108 151 236 14 24 34 56 43 70 10 15 21
34 25 42 3 8 9 17 13 20 3 3 25 39 49 80 25 41 47 77 51 80 4 3 13 17 21 32
17 33 117 198 200 328 33 52 63 103 66 113 3 9 9 17 14 17 5 0 9 5 9 11 0 6
15 34 34 62 18 29 92 149 164 267 72 118 138 224 147 235 8 10 15 25 15 32 0
7 5 13 10 13 6 0 10 7 10 15 0 8 5 15 10 15 6 0 10 4 10 9 0 9 33 65 139 234
33 54 61 102 61 107 0 4 3 10 8 12 8 4 35 48 60 98 9 19 20 37 24 40 6 5 27
49 73 155 20 47 44 118 48 140 1 11 5 25 9 30 6 9 14 49 33 165 8 47 8 254 0
310 -3 25 -8 54 -9 65 -2 11 -6 29 -9 40 -3 11 -9 35 -12 53 -7 39 -53 179
-68 207 -6 11 -11 23 -12 26 0 11 -50 104 -58 110 -5 3 -8 10 -8 15 1 5 -6 17
-14 27 -8 9 -15 21 -15 26 0 4 -9 16 -20 26 -11 10 -20 22 -20 27 0 5 -6 15
-12 22 -7 8 -33 37 -57 66 -24 28 -67 73 -94 98 -27 26 -56 53 -63 60 -7 6
-17 12 -22 12 -6 0 -12 4 -14 8 -6 15 -101 78 -188 125 -74 40 -261 111 -324
123 -11 2 -32 6 -46 9 -95 20 -167 28 -278 30 -56 0 -104 0 -106 -2z"/>
<path d="M9897 4034 c-1 -1 -27 -4 -57 -7 -103 -12 -228 -40 -298 -69 -15 -6
-32 -12 -38 -13 -42 -10 -283 -148 -304 -175 -3 -3 -16 -14 -29 -23 -28 -19
-135 -121 -171 -163 -48 -56 -133 -179 -142 -206 -6 -16 -14 -28 -18 -28 -5 0
-11 -13 -15 -30 -4 -16 -11 -30 -16 -30 -5 0 -9 -9 -9 -19 0 -11 -4 -23 -10
-26 -5 -3 -10 -15 -10 -26 0 -10 -5 -19 -12 -19 -6 0 -9 -3 -5 -6 3 -3 -3 -30
-13 -60 -11 -30 -16 -54 -13 -54 3 0 0 -6 -6 -14 -6 -8 -11 -18 -10 -22 1 -5
0 -11 -1 -14 -3 -9 -9 -44 -16 -90 -3 -25 -8 -49 -11 -53 -6 -10 -5 -274 0
-302 4 -17 19 -109 23 -140 0 -5 3 -17 6 -25 4 -8 12 -37 19 -65 7 -27 19 -61
26 -75 7 -14 13 -29 13 -34 0 -23 78 -168 134 -251 64 -93 256 -295 281 -295
8 0 15 -4 15 -9 0 -6 18 -20 40 -32 22 -13 40 -27 40 -31 0 -5 4 -7 9 -4 5 4
11 2 13 -2 8 -19 229 -119 305 -137 10 -3 43 -11 73 -18 30 -8 63 -13 73 -11
9 1 17 -1 17 -5 0 -4 16 -7 35 -6 19 1 35 -1 35 -4 0 -7 225 -5 290 3 58 8
151 25 170 33 8 3 24 8 35 10 11 1 29 7 40 12 11 5 36 15 55 21 110 39 286
143 374 220 103 90 256 264 256 290 0 5 6 15 13 22 22 22 104 198 132 283 46
138 63 263 59 420 -2 77 -5 151 -8 165 -3 14 -8 39 -10 55 -12 64 -40 165 -60
210 -8 17 -26 59 -42 95 -15 36 -36 76 -45 90 -9 14 -35 53 -58 88 -52 79 -77
108 -171 202 -80 80 -85 84 -200 160 -41 27 -80 54 -87 60 -7 5 -19 10 -27 10
-8 0 -17 4 -21 9 -9 15 -210 89 -290 107 -34 7 -85 16 -120 20 -37 5 -234 11
-238 8z"/>
</g>
</svg>
