<svg viewBox="0 0 282.16 211.06" xmlns="http://www.w3.org/2000/svg" xmlns:xlink="http://www.w3.org/1999/xlink"><linearGradient id="a" gradientUnits="userSpaceOnUse" x1="117.63" x2="230.5" y1="242.52" y2="52.11"><stop offset="0" stop-color="#fff"/><stop offset="1" stop-color="#fff"/></linearGradient><linearGradient id="b" x1="27.19" x2="140.06" xlink:href="#a" y1="188.91" y2="-1.5"/><linearGradient id="c" x1="30.34" x2="143.21" xlink:href="#a" y1="190.77" y2=".37"/><linearGradient id="d" x1="187.14" x2="300.01" xlink:href="#a" y1="283.72" y2="93.32"/><g fill-rule="evenodd"><path d="M246.48 107.72c-15.95-4.52-22.6 3.79-29 14.8-14.37 24.57-26.74 48.59-41.94 72.66-7.51 11.88-18.78 17.37-32.71 15.53-14.26-1.89-23.82-10.22-27.93-24.14a32 32 0 0 1 3.74-26.79c18.48-29.9 33.74-60 52.64-89.62 13.65-21.39 41.8-21.24 55.88-.21 7.42 11.13 12.28 23.59 19.32 37.77z" fill="url(#a)"/><path d="M110.64 105.41c.1 6.91-2.15 13.14-5.73 18.92-18 29.15-24.78 40.6-43 69.63-10.45 16.65-30.49 21.51-46.31 11.75s-20.38-29.88-10.17-46.63c18-29.51 25.08-41.1 43.46-70.38 8.62-13.74 23-19.15 37.6-14.9a33 33 0 0 1 24.15 31.61z" fill="url(#b)"/><path d="M91.84 32.53A32.1 32.1 0 0 1 123.62 0a32.41 32.41 0 1 1 .21 64.81 32 32 0 0 1-31.99-32.28z" fill="url(#c)"/><path d="M217.3 178a32.47 32.47 0 0 1 32.13-32.35c17.84-.11 32.84 14.94 32.73 32.84a32.62 32.62 0 0 1-32.34 32.22A32.22 32.22 0 0 1 217.3 178z" fill="url(#d)"/></g></svg>