<svg viewBox="0 0 526.63 145" xmlns="http://www.w3.org/2000/svg" xmlns:xlink="http://www.w3.org/1999/xlink"><linearGradient id="a" gradientUnits="userSpaceOnUse" x1="77.95" x2="169.33" y1="91.1" y2="91.1"><stop offset="0" stop-color="#e65778"/><stop offset="1" stop-color="#ed839c"/></linearGradient><linearGradient id="b" x2="76.01" xlink:href="#a" y1="97.24" y2="97.24"/><linearGradient id="c" x1="63.09" x2="107.65" xlink:href="#a" y1="22.26" y2="22.26"/><linearGradient id="d" x1="149.29" x2="193.84" xlink:href="#a" y1="122.41" y2="122.41"/><path d="M169.33 74c-11-3.1-15.52 2.61-19.94 10.17-9.87 16.88-18.37 33.38-28.82 49.92-5.15 8.16-12.89 11.94-22.46 10.67-9.8-1.3-16.37-7-19.19-16.58a22 22 0 0 1 2.57-18.41c12.7-20.54 23.18-41.2 36.16-61.57 9.35-14.7 28.72-14.59 38.35-.14 5.16 7.64 8.5 16.2 13.33 25.94z" fill="url(#a)" fill-rule="evenodd"/><path d="M76 72.42a23.77 23.77 0 0 1-3.93 13c-12.38 20-17 27.9-29.55 47.84-7.18 11.44-21 14.78-31.82 8.08s-14-20.53-7-32C16.09 89 21 81.05 33.58 60.94 39.51 51.5 49.4 47.78 59.42 50.7A22.67 22.67 0 0 1 76 72.42z" fill="url(#b)" fill-rule="evenodd"/><path d="M63.09 22.35A22.06 22.06 0 0 1 84.93 0a22.26 22.26 0 1 1 .14 44.52 22 22 0 0 1-21.98-22.17z" fill="url(#c)" fill-rule="evenodd"/><path d="M149.29 122.28a22.3 22.3 0 0 1 22.07-22.22 22.35 22.35 0 0 1 .27 44.7 22.14 22.14 0 0 1-22.34-22.48z" fill="url(#d)" fill-rule="evenodd"/><path d="M223.79 20.27c0-4.49 3.64-8 8.55-8s8.55 3.31 8.55 7.69a8.21 8.21 0 0 1-8.55 8.34c-4.91-.01-8.55-3.54-8.55-8.03zm1.82 17.42H239v57.06h-13.39zm90.3 24.36v32.7h-13.36v-31c0-10.15-5-15.06-13.57-15.06-9.52 0-15.93 5.77-15.93 17.2v28.86H259.7V37.69h12.71v7.37c4.38-5.23 11.33-8 19.66-8 13.69-.01 23.84 7.79 23.84 24.99zm16.03 4.17c0-17.1 12.82-29.17 30.34-29.17 17.74 0 30.46 12.07 30.46 29.17S380 95.5 362.28 95.5c-17.52 0-30.34-12.18-30.34-29.28zm47.33 0c0-10.9-7.26-17.85-17-17.85s-16.88 7-16.88 17.85 7.26 17.85 16.88 17.85 17-6.95 17-17.85zm81.33-28.53l-24.48 57.06h-13.78l-24.47-57.06h13.89L429.5 80l18.27-42.32zm5.23 28.53c0-17.1 12.82-29.17 30.35-29.17 17.74 0 30.45 12.07 30.45 29.17S513.92 95.5 496.18 95.5c-17.53 0-30.35-12.18-30.35-29.28zm47.34 0c0-10.9-7.27-17.85-17-17.85s-16.89 7-16.89 17.85 7.27 17.85 16.89 17.85 17-6.95 17-17.85zM249 131v-17.1l-8.48 14.15h-2.22l-8.48-13.93V131h-4.57v-25.8h3.95l10.24 17.1 10.07-17.1h3.94V131zm53.37-4v4H283v-25.8h18.83v4h-14v6.71h12.46v3.94h-12.48V127zm27.91-21.8h11.27c8.37 0 14.08 5.16 14.08 12.9s-5.71 12.9-14.08 12.9h-11.27zm11.05 21.8c5.76 0 9.48-3.51 9.48-8.85s-3.72-8.85-9.48-8.85h-6.26V127zm41.96-21.8h4.79V131h-4.79zm51.05 19.8h-12.9l-2.54 6H414l11.61-25.8h4.72l11.61 25.8h-5zm-1.58-3.76L427.89 110l-4.83 11.28z" fill="#00113d"/></svg>