<svg viewBox="0 0 1000 1000" xmlns="http://www.w3.org/2000/svg" fill-rule="evenodd" clip-rule="evenodd" stroke-linejoin="round" stroke-miterlimit="2"><path d="M501.2 0C223.1.1-.1 224 0 502.7c2.5 276.1 224.2 497.5 500.5 497.3 137.5-.1 256.4-49.6 353.6-147 96.9-97 145.5-215.9 146-352.9C1001 224.8 775.9-.1 501.2 0zm3.3 920.3c-229.2.1-416.7-186.7-416.8-415.2C87.6 274.3 274.2 87 504.9 87.9 735.5 88.8 921.1 274.2 920 506c-1.1 229.8-185.8 412.8-415.5 414.3zM545 396.9c-48.9-29.6-97.8-59.1-146.7-88.7-4.8-2.9-6.9-2.7-6.5 3.4.1 1.4 0 2.9 0 4.3v387.7c0 12.5 0 12.5 11.2 6.6C507.5 655.1 612 600 716.5 544.8c12.4-6.5 24.9-13.2 38.4-20.4-2.8-1.9-4.4-3-6-4C681 479.3 613 438.1 545 396.9z" fill="#fff" fill-rule="nonzero"/></svg>